<svg width="16" height="16" viewBox="0 0 16 16" fill="none" xmlns="http://www.w3.org/2000/svg">
<mask id="mask0_1_11547" style="mask-type:luminance" maskUnits="userSpaceOnUse" x="1" y="1" width="14" height="14">
<path d="M4.33398 4.14384V2.60384C4.33407 2.35521 4.4329 2.1168 4.60874 1.94102C4.78458 1.76525 5.02302 1.6665 5.27165 1.6665H13.3963C13.645 1.6665 13.8835 1.76529 14.0593 1.94114C14.2352 2.11699 14.334 2.35549 14.334 2.60417V10.7292C14.3339 10.9778 14.2351 11.2162 14.0592 11.392C13.8834 11.5678 13.6449 11.6665 13.3963 11.6665H11.8397" stroke="white" stroke-linecap="round" stroke-linejoin="round"/>
<path d="M10.7297 4.33301H2.60399C2.35542 4.33318 2.1171 4.43205 1.94139 4.60788C1.76569 4.78371 1.66699 5.02211 1.66699 5.27067V13.3953C1.66699 13.644 1.76578 13.8825 1.94163 14.0584C2.11748 14.2342 2.35597 14.333 2.60466 14.333H10.7297C10.9783 14.3329 11.2167 14.2341 11.3925 14.0583C11.5682 13.8824 11.667 13.644 11.667 13.3953V5.27101C11.667 5.14784 11.6428 5.02588 11.5957 4.91208C11.5486 4.79827 11.4795 4.69487 11.3925 4.60776C11.3054 4.52066 11.202 4.45156 11.0882 4.40442C10.9744 4.35727 10.8528 4.33301 10.7297 4.33301Z" fill="white" stroke="white" stroke-linejoin="round"/>
</mask>
<g mask="url(#mask0_1_11547)">
<path d="M0 0H16V16H0V0Z" fill="#11D9C5"/>
</g>
</svg>
