<svg width="30" height="30" viewBox="0 0 30 30" fill="none" xmlns="http://www.w3.org/2000/svg">
<path fill-rule="evenodd" clip-rule="evenodd" d="M3.67157 3.67159C2.5 4.84316 2.5 6.72878 2.5 10.5V19.5C2.5 23.2713 2.5 25.1569 3.67157 26.3284C4.84315 27.5 6.72876 27.5 10.5 27.5H19.5C23.2712 27.5 25.1569 27.5 26.3284 26.3284C27.5 25.1569 27.5 23.2713 27.5 19.5V10.5C27.5 7.44143 27.5 5.62315 26.875 4.42017V21.25C26.6606 21.25 26.5534 21.25 26.4501 21.2447C25.5331 21.1972 24.6604 20.8357 23.9784 20.2208C23.9016 20.1516 23.8258 20.0758 23.6742 19.9242L22.7346 18.9846C21.4923 17.7423 20.8711 17.1212 20.1042 17.0812C20.0348 17.0775 19.9652 17.0775 19.8958 17.0812C19.1289 17.1212 18.5077 17.7423 17.2654 18.9846L17.0888 19.1612C16.1424 20.1076 15.6692 20.5808 15.1482 20.4804C14.6272 20.3801 14.3636 19.765 13.8363 18.5348L13.5773 17.9304C12.5229 15.47 11.9956 14.2398 10.9536 14.0392C9.91154 13.8385 8.96513 14.7849 7.07232 16.6777L4.375 19.375V3.14893C4.11325 3.29017 3.881 3.46216 3.67157 3.67159Z" fill="white"/>
<path d="M3.5 10.5C3.5 8.58611 3.50212 7.25129 3.63753 6.24416C3.76907 5.26579 4.00966 4.7477 4.37868 4.37868C4.7477 4.00966 5.26579 3.76907 6.24416 3.63753C7.25129 3.50212 8.58611 3.5 10.5 3.5H19.5C21.4139 3.5 22.7487 3.50212 23.7558 3.63753C24.7342 3.76907 25.2523 4.00966 25.6213 4.37868C25.9903 4.7477 26.2309 5.26579 26.3625 6.24416C26.4979 7.25129 26.5 8.58611 26.5 10.5V19.5C26.5 21.4139 26.4979 22.7487 26.3625 23.7558C26.2309 24.7342 25.9903 25.2523 25.6213 25.6213C25.2523 25.9903 24.7342 26.2309 23.7558 26.3625C22.7487 26.4979 21.4139 26.5 19.5 26.5H10.5C8.58611 26.5 7.25129 26.4979 6.24416 26.3625C5.26579 26.2309 4.7477 25.9903 4.37868 25.6213C4.00966 25.2523 3.76907 24.7342 3.63753 23.7558C3.50212 22.7487 3.5 21.4139 3.5 19.5V10.5Z" stroke="white" stroke-width="2"/>
<circle cx="18.75" cy="11.25" r="2.5" fill="white"/>
</svg>
