<svg width="16" height="16" viewBox="0 0 16 16" fill="none" xmlns="http://www.w3.org/2000/svg">
<mask id="mask0_1_11588" style="mask-type:luminance" maskUnits="userSpaceOnUse" x="1" y="1" width="14" height="14">
<path d="M4.3335 4.14384V2.60384C4.33358 2.35521 4.43241 2.1168 4.60825 1.94102C4.78409 1.76525 5.02254 1.6665 5.27116 1.6665H13.3958C13.6445 1.6665 13.883 1.76529 14.0589 1.94114C14.2347 2.11699 14.3335 2.35549 14.3335 2.60417V10.7292C14.3334 10.9778 14.2346 11.2162 14.0587 11.392C13.8829 11.5678 13.6445 11.6665 13.3958 11.6665H11.8392" stroke="white" stroke-linecap="round" stroke-linejoin="round"/>
<path d="M10.7294 4.33301H2.60375C2.35518 4.33318 2.11685 4.43205 1.94115 4.60788C1.76545 4.78371 1.66675 5.02211 1.66675 5.27067V13.3953C1.66675 13.644 1.76554 13.8825 1.94138 14.0584C2.11723 14.2342 2.35573 14.333 2.60441 14.333H10.7294C10.978 14.3329 11.2165 14.2341 11.3922 14.0583C11.568 13.8824 11.6667 13.644 11.6667 13.3953V5.27101C11.6668 5.14784 11.6426 5.02588 11.5955 4.91208C11.5484 4.79827 11.4793 4.69487 11.3922 4.60776C11.3052 4.52066 11.2018 4.45156 11.088 4.40442C10.9742 4.35727 10.8526 4.33301 10.7294 4.33301Z" fill="white" stroke="white" stroke-linejoin="round"/>
</mask>
<g mask="url(#mask0_1_11588)">
<path d="M0 0H16V16H0V0Z" fill="#263238"/>
</g>
</svg>
