<svg width="79" height="79" viewBox="0 0 79 79" fill="none" xmlns="http://www.w3.org/2000/svg">
<rect width="79" height="79" rx="39.5" fill="black"/>
<path d="M62.3825 37.5779H61.9121C56.4277 37.5779 50.9434 37.5736 45.4599 37.5839C44.8409 37.5848 44.3593 37.3727 43.9626 36.9056C43.5007 36.3622 43.0234 35.8308 42.546 35.3002C41.8738 34.5533 41.0685 34.5421 40.3628 35.2719C39.7875 35.8668 39.2166 36.4661 38.65 37.0705C38.3297 37.4122 37.9563 37.5822 37.4772 37.5822C30.6793 37.5753 23.8814 37.5779 17.0826 37.577C16.9573 37.577 16.8319 37.5659 16.6182 37.5564C16.765 36.6137 16.8723 35.6977 17.0586 34.7979C17.232 33.9626 17.5007 33.1487 17.7042 32.3193C17.7884 31.9776 17.9635 31.8909 18.3061 31.8918C25.4044 31.9029 32.502 31.8935 39.6004 31.9072C40.6143 31.909 41.4299 31.5964 42.0635 30.7886C42.4147 30.3404 42.8079 29.9223 43.2002 29.5076C43.8089 28.8646 44.6237 28.8843 45.2152 29.5454C45.7011 30.0871 46.1965 30.622 46.661 31.1826C47.0988 31.7106 47.6492 31.9055 48.3188 31.9047C52.4458 31.8961 56.5737 31.9055 60.7007 31.8918C61.0784 31.8901 61.2321 31.9957 61.348 32.364C61.876 34.0424 62.2366 35.7483 62.3808 37.5787L62.3825 37.5779Z" fill="white"/>
<path d="M18.8535 49.4892C17.9666 47.6639 17.351 45.776 16.9707 43.7516C17.1725 43.7516 17.339 43.7516 17.5056 43.7516C22.1906 43.7516 26.8757 43.7464 31.5607 43.7559C32.4931 43.7576 33.2512 43.4459 33.847 42.7196C34.2273 42.2569 34.6291 41.8113 35.0369 41.3717C35.637 40.7252 36.4672 40.727 37.0579 41.3743C37.5585 41.922 38.0581 42.4724 38.5355 43.0407C38.9639 43.5524 39.4987 43.755 40.1538 43.7542C47.2814 43.7481 54.409 43.7507 61.5357 43.7507C61.7048 43.7507 61.874 43.7507 62.0714 43.7507C61.716 45.6919 61.1142 47.5077 60.3097 49.2625C60.1852 49.5347 59.9878 49.4901 59.7817 49.4901C55.7251 49.4901 51.6685 49.4901 47.6119 49.4901C44.1838 49.4901 40.7556 49.4815 37.3284 49.4978C36.6312 49.5012 36.0903 49.2771 35.6482 48.7371C35.2052 48.1962 34.7296 47.6828 34.2617 47.1626C33.653 46.4852 32.8416 46.4568 32.2037 47.1007C31.5813 47.7292 30.9984 48.4006 30.3459 48.9964C30.0823 49.2376 29.6831 49.4634 29.344 49.4669C25.86 49.5012 22.3752 49.4875 18.8518 49.4875L18.8535 49.4892Z" fill="white"/>
<path d="M57.7957 25.7429C56.6728 25.7429 55.549 25.7429 54.426 25.7429C54.1264 25.7429 53.8259 25.7403 53.5262 25.7429C52.9957 25.7489 52.5544 25.5514 52.2015 25.1582C51.6778 24.5735 51.1644 23.9803 50.6355 23.3999C50.0225 22.7268 49.2052 22.7114 48.5742 23.3587C48.0067 23.9408 47.4418 24.5272 46.8932 25.1273C46.5025 25.5548 46.0475 25.7497 45.4585 25.7489C37.548 25.7386 29.6365 25.742 21.726 25.742C21.5706 25.742 21.4152 25.742 21.125 25.742C25.058 20.7135 30.0426 17.5979 36.2739 16.7926C45.0859 15.6542 52.2462 18.7853 57.8438 25.5823C57.8275 25.6355 57.8112 25.6888 57.7949 25.742L57.7957 25.7429Z" fill="white"/>
<path d="M22.8105 55.189C23.7584 55.1074 24.434 54.6344 24.9895 53.9278C25.3063 53.5251 25.666 53.1551 26.0095 52.7722C26.5958 52.118 27.4321 52.0974 28.0279 52.7387C28.513 53.2616 28.992 53.7913 29.4436 54.3425C29.9046 54.9065 30.4713 55.134 31.1985 55.1332C39.3649 55.1212 47.5313 55.1254 55.6986 55.1254C55.8668 55.1254 56.036 55.1254 56.2042 55.1254C52.303 59.3203 47.5244 61.7877 41.8469 62.32C34.3828 63.0197 28.0451 60.554 22.8105 55.1881V55.189Z" fill="white"/>
</svg>
