<svg width="26" height="26" viewBox="0 0 26 26" fill="none" xmlns="http://www.w3.org/2000/svg">
<path fill-rule="evenodd" clip-rule="evenodd" d="M12.6104 0C9.45304 0 6.57584 1.0428 4.87404 1.89521C4.72065 1.97202 4.57689 2.04729 4.44325 2.1201C4.17888 2.26419 3.9544 2.3987 3.77496 2.51662L5.71132 5.36714L6.62271 5.72998C10.1854 7.52754 14.9629 7.52754 18.5256 5.72998L19.5605 5.19305L21.3913 2.51662C21.1231 2.33776 20.752 2.12075 20.2954 1.89C20.2676 1.87594 20.2395 1.86182 20.211 1.84766C18.5165 1.00453 15.7092 0 12.6104 0ZM8.10683 3.22698C7.40998 3.09841 6.72527 2.92108 6.07893 2.71763C7.67372 2.00949 10.0504 1.25831 12.6104 1.25831C14.3842 1.25831 16.0613 1.61898 17.4484 2.07565C15.8228 2.30513 14.088 2.69251 12.4355 3.17056C11.1353 3.54672 9.61536 3.50532 8.10683 3.22698Z" fill="#333333"/>
<path fill-rule="evenodd" clip-rule="evenodd" d="M19.2638 6.76694L19.0924 6.85338C15.1732 8.83082 9.97502 8.83082 6.05588 6.85338L5.89293 6.77122C0.0057109 13.2314 -6.17049 25.3457 12.6104 25.1642C31.3783 24.9828 25.1054 13.0085 19.2638 6.76694ZM13.6598 11.3248H11.5064V12.3314C10.8067 12.3298 10.1339 12.583 9.63037 13.0375C9.12698 13.4918 8.8326 14.1116 8.80963 14.7655C8.78667 15.4193 9.03695 16.0559 9.50737 16.5401C9.97785 17.0244 10.6315 17.3183 11.3299 17.3597L11.5064 17.3647H13.6598L13.7567 17.3727C13.8808 17.3938 13.9931 17.4549 14.074 17.5454C14.1548 17.6359 14.1992 17.7501 14.1992 17.868C14.1992 17.9859 14.1548 18.1002 14.074 18.1907C13.9931 18.2812 13.8808 18.3423 13.7567 18.3633L13.6598 18.3713H9.3531V20.3846H11.5064V21.3913H13.6598V20.3846C14.3595 20.3863 15.0324 20.133 15.5359 19.6786C16.0393 19.2243 16.3336 18.6045 16.3566 17.9506C16.3796 17.2967 16.1293 16.6602 15.6589 16.176C15.1884 15.6917 14.5347 15.3978 13.8363 15.3564L13.6598 15.3514H11.5064L11.4096 15.3433C11.2854 15.3223 11.1731 15.2612 11.0923 15.1707C11.0114 15.0802 10.9671 14.966 10.9671 14.8481C10.9671 14.7302 11.0114 14.6159 11.0923 14.5254C11.1731 14.4349 11.2854 14.3738 11.4096 14.3528L11.5064 14.3447H15.8131V12.3314H13.6598V11.3248Z" fill="#333333"/>
</svg>
